<?xml version="1.0" encoding="utf-8"?><!-- Uploaded to: SVG Repo, www.svgrepo.com, Generator: SVG Repo Mixer Tools -->
<svg viewBox="0 0 24 24" fill="none" xmlns="http://www.w3.org/2000/svg">
<path d="M15.4998 5.49994L18.3282 8.32837M3 20.9997L3.04745 20.6675C3.21536 19.4922 3.29932 18.9045 3.49029 18.3558C3.65975 17.8689 3.89124 17.4059 4.17906 16.9783C4.50341 16.4963 4.92319 16.0765 5.76274 15.237L17.4107 3.58896C18.1918 2.80791 19.4581 2.80791 20.2392 3.58896C21.0202 4.37001 21.0202 5.63634 20.2392 6.41739L8.37744 18.2791C7.61579 19.0408 7.23497 19.4216 6.8012 19.7244C6.41618 19.9932 6.00093 20.2159 5.56398 20.3879C5.07171 20.5817 4.54375 20.6882 3.48793 20.9012L3 20.9997Z" stroke="#000000" stroke-width="2" stroke-linecap="round" stroke-linejoin="round"/>
</svg>